<?xml version="1.0" standalone="no"?>
<!DOCTYPE svg PUBLIC "-//W3C//DTD SVG 20010904//EN"
 "http://www.w3.org/TR/2001/REC-SVG-20010904/DTD/svg10.dtd">
<svg version="1.0" xmlns="http://www.w3.org/2000/svg"
 width="940.000000pt" height="788.000000pt" viewBox="0 0 940.000000 788.000000"
 preserveAspectRatio="xMidYMid meet">
<metadata>
Created by potrace 1.16, written by Peter Selinger 2001-2019
</metadata>
<g transform="translate(0.000000,788.000000) scale(0.100000,-0.100000)"
fill="#000000" stroke="none">
<path d="M2110 6565 l0 -25 2490 0 2490 0 2 -1537 c3 -1530 3 -1538 23 -1538
20 0 20 8 23 1556 l2 1556 -37 7 c-21 3 -1153 6 -2515 6 l-2478 0 0 -25z"/>
<path d="M2108 4428 c-2 -1157 -1 -2105 2 -2108 3 -3 823 -4 1823 -2 1806 2
1817 2 1817 22 0 20 -10 20 -1800 20 l-1800 0 0 2085 c0 2075 0 2085 -20 2085
-20 0 -20 -11 -22 -2102z"/>
<path d="M2731 4548 c1 -865 4 -1584 8 -1598 l7 -25 1212 -3 1212 -2 0 25 0
25 -1200 0 -1200 0 0 1575 c0 1568 0 1575 -20 1575 -20 0 -20 -6 -19 -1572z"/>
<path d="M5793 3986 c-122 -40 -202 -141 -244 -306 -21 -82 -18 -346 4 -430
40 -149 111 -241 215 -280 47 -18 71 -21 143 -17 57 3 101 11 125 23 l39 19 3
83 c2 45 2 82 0 82 -2 0 -27 -9 -56 -20 -31 -12 -76 -20 -112 -20 -55 0 -63 3
-99 36 -48 42 -68 96 -82 220 -22 193 24 386 104 434 45 28 111 26 166 -5 24
-14 45 -24 47 -22 2 2 17 36 33 75 l30 72 -22 15 c-74 48 -214 68 -294 41z"/>
<path d="M6580 2615 l0 -515 230 0 230 0 0 85 0 85 -135 0 -135 0 0 140 0 140
125 0 125 0 0 85 0 85 -125 0 -125 0 0 120 0 120 135 0 135 0 0 85 0 85 -230
0 -230 0 0 -515z"/>
</g>
</svg>
